<svg width="36" height="36" viewBox="0 0 36 36" fill="none" xmlns="http://www.w3.org/2000/svg">
<path d="M24 21.75C23.8026 21.7511 23.6069 21.7133 23.4241 21.6387C23.2414 21.564 23.0752 21.454 22.935 21.315L18 16.35L13.05 21.12C12.769 21.3994 12.3888 21.5562 11.9925 21.5562C11.5962 21.5562 11.216 21.3994 10.935 21.12C10.7944 20.9806 10.6828 20.8146 10.6067 20.6319C10.5305 20.4491 10.4913 20.253 10.4913 20.055C10.4913 19.857 10.5305 19.6609 10.6067 19.4781C10.6828 19.2953 10.7944 19.1294 10.935 18.99L16.935 13.2C17.2154 12.9252 17.5924 12.7712 17.985 12.7712C18.3776 12.7712 18.7546 12.9252 19.035 13.2L25.035 19.2C25.1756 19.3394 25.2872 19.5053 25.3633 19.6881C25.4395 19.8709 25.4787 20.067 25.4787 20.265C25.4787 20.463 25.4395 20.6591 25.3633 20.8419C25.2872 21.0247 25.1756 21.1906 25.035 21.33C24.7569 21.598 24.3862 21.7485 24 21.75Z" fill="#425F6A"/>
</svg>
